<?xml version="1.0"?>
<svg id="drawing" xmlns="http://www.w3.org/2000/svg" viewBox="0 0 512 512">
  <g id="Icons_copy" data-name="Icons copy">
    <path d="M472,200H446.035l-8.507-29.771a32.037,32.037,0,0,0-35.759-22.818L285.316,165.8A25.239,25.239,0,0,0,265.764,200H248a8,8,0,0,0-4.438,1.344L221.578,216H208v16h13.578l21.984,14.656A8,8,0,0,0,248,248h36.686l19.448,19.448a43.216,43.216,0,0,0,27.178,36.893L344,309.417v64.7l-15.155,30.31a7.977,7.977,0,0,0-.83,3.578H328v88h16V416H448v80h16V408h-.015a7.977,7.977,0,0,0-.83-3.578L448,374.112V248h24a24,24,0,0,0,0-48Zm-192-9.255a9.211,9.211,0,0,1,7.812-9.142l116.452-18.388a16.013,16.013,0,0,1,17.88,11.409L429.394,200h-42.08l10.343-10.343-11.314-11.314L364.687,200H289.255A9.265,9.265,0,0,1,280,190.745ZM238.422,224l12-8h23.251a24.994,24.994,0,0,0-.67,16H250.422ZM348.944,400l8-16h78.112l8,16ZM432,368H360V304a8,8,0,0,0-5.029-7.428l-17.716-7.086A27.318,27.318,0,0,1,320,264a8,8,0,0,0-2.343-5.657l-27.029-27.029A8.97,8.97,0,0,1,296.971,216h3.023a9.018,9.018,0,0,1,4.011.947l59.256,29.628,23.082,23.082,11.314-11.314L387.314,248H432ZM369.889,232l-32-16H448v16ZM472,232h-8V216h8a8,8,0,0,1,0,16Z"/>
    <path d="M24,56V464a8,8,0,0,0,8,8H312V456H40V64H400v64h16V56a8,8,0,0,0-8-8H32A8,8,0,0,0,24,56Z"/>
    <path d="M183.559,168.779a119.9,119.9,0,0,1,69.267,7.88l6.348-14.686a135.977,135.977,0,1,0,74.8,168.594l-15.155-5.134a120.028,120.028,0,0,1-82.413,77.232l59.128-59.128-11.314-11.314L209.77,406.677a121.01,121.01,0,0,1-21.525-1.1l52.667-52.667L229.6,341.6l-59.855,59.855a119.284,119.284,0,0,1-16.284-6.34l52.823-52.832-11.314-11.312L139,386.947a119.6,119.6,0,0,1-12.829-9.8l45.488-45.488-11.314-11.314-45.491,45.491a120.534,120.534,0,0,1-9.815-12.817l51.994-51.985-11.312-11.314L96.843,338.584a118.455,118.455,0,0,1-6.358-16.265L142.4,270.4l-11.314-11.314L86.364,303.812a121.7,121.7,0,0,1-1.192-16.984c0-1.518.037-3.03.093-4.539l50.512-50.512-11.314-11.314L89.238,255.688a120.186,120.186,0,0,1,94.321-86.909Z"/>
    <path d="M275.987,134c11.945,0,17.269-10.647,21.157-18.422,2.021-4.042,4.789-9.578,6.845-9.578s4.825,5.536,6.847,9.578c3.888,7.775,9.213,18.422,21.158,18.422s17.271-10.647,21.158-18.422c2.022-4.042,4.79-9.578,6.848-9.578V90c-11.945,0-17.271,10.647-21.158,18.422-2.022,4.042-4.79,9.578-6.848,9.578s-4.826-5.536-6.848-9.579C321.259,100.647,315.934,90,303.989,90s-17.268,10.647-21.156,18.422c-2.021,4.042-4.789,9.578-6.846,9.578s-4.823-5.536-6.844-9.578C265.255,100.648,259.931,90,247.986,90s-17.268,10.647-21.155,18.422c-2.021,4.042-4.789,9.578-6.845,9.578s-4.823-5.536-6.844-9.578C209.254,100.648,203.93,90,191.985,90s-17.266,10.647-21.153,18.422c-2.021,4.042-4.789,9.578-6.844,9.578s-4.822-5.536-6.842-9.577C153.259,100.648,147.936,90,135.992,90s-17.265,10.648-21.151,18.423C112.82,112.464,110.053,118,108,118s-4.822-5.536-6.844-9.577C97.269,100.648,91.944,90,80,90v16c2.056,0,4.823,5.536,6.845,9.578C90.731,123.353,96.056,134,108,134s17.267-10.648,21.153-18.423c2.02-4.042,4.787-9.577,6.84-9.577s4.822,5.536,6.843,9.577c3.887,7.775,9.21,18.423,21.153,18.423s17.268-10.648,21.155-18.423c2.02-4.042,4.788-9.577,6.842-9.577s4.825,5.536,6.846,9.578c3.888,7.775,9.211,18.422,21.155,18.422s17.269-10.647,21.156-18.422c2.021-4.042,4.789-9.578,6.844-9.578s4.825,5.536,6.846,9.578C258.72,123.353,264.043,134,275.987,134Z"/>
    <rect x="88" y="16" width="224" height="16"/>
    <rect x="328" y="16" width="16" height="16"/>
  </g>
</svg>
