<svg id="instagram" enable-background="new 0 0 512 512" viewBox="0 0 512 512" xmlns="http://www.w3.org/2000/svg">
  <g>
    <path d="m295.644 443.388h-.053c-9.151.063-20.951.091-39.454.091-52.306 0-59.217-.217-80.06-1.136-17.78-.784-31.643-3.428-45.008-8.595-11.863-4.466-22.865-11.633-31.816-20.727l-.082-.082c-9.24-9.101-16.239-19.836-20.826-31.975-5.137-13.214-7.779-27.076-8.566-44.943-.919-20.91-1.136-27.834-1.136-80.08 0-46.458.186-57.268.873-72.79.183-4.138-3.023-7.641-7.162-7.824-4.098-.187-7.641 3.023-7.823 7.161-.698 15.783-.888 26.704-.888 73.453 0 52.562.22 59.562 1.149 80.739.863 19.577 3.815 34.911 9.547 49.652 5.326 14.097 13.49 26.63 24.267 37.254 10.459 10.612 23.313 18.979 37.116 24.175 14.89 5.756 30.216 8.707 49.695 9.565 21.109.931 28.096 1.15 80.72 1.15 18.54 0 30.37-.027 39.558-.091 4.143-.029 7.477-3.41 7.448-7.552-.03-4.121-3.381-7.445-7.499-7.445z"/>
    <path d="m438.134 367.868c-1.031 4.012 1.386 8.1 5.397 9.131.626.161 1.254.238 1.871.238 3.342 0 6.39-2.25 7.259-5.635 2.662-10.36 4.238-21.783 4.817-34.921.931-21.194 1.15-28.197 1.15-80.738 0-23.195-.016-36.843-.1-47.071-.034-4.142-3.407-7.477-7.562-7.438-4.143.035-7.473 3.42-7.438 7.562.084 10.175.1 23.793.1 46.947 0 52.224-.217 59.152-1.137 80.079-.531 12.086-1.957 22.503-4.357 31.846z"/>
    <path d="m226.465 68.37h.028c7.974-.029 17.639-.042 29.718-.042 52.573 0 59.451.231 80.138 1.213 17.781.784 31.642 3.428 45.005 8.595 11.862 4.465 22.864 11.632 31.816 20.727.034.034.068.068.103.102 9.188 8.979 16.181 19.708 20.809 31.955 5.135 13.208 7.775 27.069 8.563 44.945.178 4.025 3.497 7.169 7.487 7.169.111 0 .224-.002.336-.007 4.139-.183 7.345-3.685 7.163-7.823-.864-19.583-3.815-34.917-9.544-49.652-5.372-14.217-13.54-26.754-24.277-37.263-10.459-10.609-23.311-18.973-37.108-24.167-14.887-5.757-30.212-8.708-49.667-9.565-20.948-.994-27.907-1.229-80.823-1.229-12.101 0-21.785.012-29.772.042-4.143.015-7.488 3.385-7.473 7.527.014 4.133 3.369 7.473 7.498 7.473z"/>
    <path d="m169.193 211.087c-3.811-1.611-8.216.172-9.829 3.987-5.469 12.935-8.242 26.672-8.242 40.83 0 57.837 47.036 104.892 104.851 104.892s104.851-47.054 104.851-104.892-47.036-104.892-104.851-104.892c-30.084 0-58.758 12.956-78.669 35.546-2.739 3.107-2.44 7.847.667 10.585s7.848 2.44 10.585-.667c17.065-19.361 41.638-30.465 67.417-30.465 49.544 0 89.851 40.325 89.851 89.892s-40.307 89.892-89.851 89.892-89.851-40.325-89.851-89.892c0-12.14 2.375-23.912 7.059-34.988 1.613-3.814-.172-8.215-3.988-9.828z"/>
    <path d="m255.973 330.784c41.273 0 74.852-33.591 74.852-74.88s-33.578-74.88-74.852-74.88-74.852 33.591-74.852 74.88 33.578 74.88 74.852 74.88zm0-134.76c33.002 0 59.852 26.862 59.852 59.88s-26.85 59.88-59.852 59.88-59.852-26.862-59.852-59.88 26.85-59.88 59.852-59.88z"/>
    <path d="m400.298 144.558c0-15.168-12.337-27.508-27.5-27.508s-27.499 12.34-27.499 27.508 12.336 27.508 27.499 27.508 27.5-12.34 27.5-27.508zm-39.999 0c0-6.897 5.607-12.508 12.499-12.508 6.893 0 12.5 5.611 12.5 12.508s-5.607 12.508-12.5 12.508c-6.892-.001-12.499-5.611-12.499-12.508z"/>
    <path d="m489.082 392.485h-117.335l-39.573-30.098c-2.268-1.726-5.319-2.015-7.871-.75-2.554 1.266-4.169 3.869-4.169 6.719v120.708c0 12.646 10.28 22.935 22.917 22.935h16.233c4.143 0 7.5-3.358 7.5-7.5s-3.357-7.5-7.5-7.5h-16.233c-4.365 0-7.917-3.56-7.917-7.935v-105.58l29.545 22.471c1.305.993 2.9 1.53 4.54 1.53h119.863c4.366 0 7.918 3.56 7.918 7.935v73.645c0 4.375-3.552 7.935-7.918 7.935h-95.304c-4.143 0-7.5 3.358-7.5 7.5s3.357 7.5 7.5 7.5h95.304c12.637 0 22.918-10.289 22.918-22.935v-73.645c0-12.647-10.281-22.935-22.918-22.935z"/>
    <path d="m368.444 477.057h99.94c4.143 0 7.5-3.358 7.5-7.5s-3.357-7.5-7.5-7.5h-99.94c-4.143 0-7.5 3.358-7.5 7.5s3.358 7.5 7.5 7.5z"/>
    <path d="m368.444 443.044h89.947c4.143 0 7.5-3.358 7.5-7.5s-3.357-7.5-7.5-7.5h-89.947c-4.143 0-7.5 3.358-7.5 7.5s3.358 7.5 7.5 7.5z"/>
    <path d="m119.557 178.657c1.401 2.021 3.704 3.226 6.163 3.226s4.762-1.205 6.163-3.226l16.042-23.129h26.576c13.752 0 24.939-11.191 24.939-24.947v-105.634c0-13.756-11.187-24.947-24.939-24.947h-95.105c-4.143 0-7.5 3.358-7.5 7.5s3.357 7.5 7.5 7.5h95.104c5.48 0 9.939 4.462 9.939 9.947v105.635c0 5.485-4.459 9.947-9.939 9.947h-30.502c-2.459 0-4.762 1.205-6.163 3.226l-12.116 17.469-12.117-17.469c-1.401-2.021-3.704-3.226-6.163-3.226h-82.5c-5.48 0-9.939-4.462-9.939-9.947v-105.635c0-5.485 4.459-9.947 9.939-9.947h19.913c4.143 0 7.5-3.358 7.5-7.5s-3.357-7.5-7.499-7.5h-19.914c-13.751 0-24.939 11.191-24.939 24.947v105.635c0 13.756 11.188 24.947 24.939 24.947h78.574z"/>
    <path d="m94.416 112.264c1.407 1.407 3.315 2.198 5.305 2.198s3.897-.791 5.305-2.198l28.723-28.736c9.719-9.723 9.728-25.535.019-35.248-4.701-4.704-10.952-7.293-17.604-7.293h-.02c-6.105.004-11.877 2.19-16.424 6.189-4.546-3.999-10.317-6.185-16.423-6.189h-.02c-6.651 0-12.902 2.589-17.604 7.292-9.708 9.713-9.7 25.525.019 35.248zm-18.133-53.379c1.867-1.868 4.351-2.896 6.995-2.896h.008c2.65.002 5.144 1.037 7.021 2.916l4.109 4.11c1.406 1.407 3.314 2.197 5.304 2.197s3.898-.791 5.305-2.198l4.108-4.111c1.877-1.877 4.37-2.913 7.021-2.915h.008c2.644 0 5.128 1.028 6.995 2.896 3.864 3.865 3.855 10.163-.019 14.039l-23.417 23.43-23.419-23.429c-3.874-3.875-3.883-10.174-.019-14.039z"/>
  </g>
</svg>
