<?xml version="1.0" encoding="iso-8859-1"?>
<!-- Generator: Adobe Illustrator 19.0.0, SVG Export Plug-In . SVG Version: 6.00 Build 0)  -->
<svg version="1.1" id="plant" xmlns="http://www.w3.org/2000/svg" xmlns:xlink="http://www.w3.org/1999/xlink" x="0px" y="0px"
	 viewBox="0 0 512.001 512.001" style="enable-background:new 0 0 512.001 512.001;" xml:space="preserve">
<g>
	<g>
		<path d="M470.948,198.879c-0.014-0.249-0.041-0.499-0.08-0.751c-0.008-0.052-0.007-0.105-0.017-0.157
			c-0.004-0.023-0.013-0.045-0.017-0.068c-0.007-0.036-0.009-0.073-0.016-0.109c-0.056-0.278-0.129-0.548-0.213-0.813
			c-0.013-0.042-0.031-0.082-0.045-0.124c-0.089-0.265-0.193-0.521-0.309-0.769c-0.03-0.064-0.06-0.127-0.092-0.19
			c-0.131-0.262-0.273-0.516-0.432-0.758c-0.011-0.017-0.021-0.036-0.033-0.053c-0.178-0.267-0.372-0.52-0.581-0.76
			c-0.035-0.041-0.073-0.079-0.109-0.118c-0.176-0.195-0.361-0.379-0.556-0.554c-0.052-0.047-0.104-0.095-0.157-0.141
			c-0.236-0.2-0.48-0.389-0.738-0.56c-0.024-0.016-0.049-0.028-0.073-0.044c-0.238-0.153-0.485-0.29-0.739-0.416
			c-0.071-0.035-0.142-0.069-0.214-0.102c-0.271-0.124-0.547-0.236-0.832-0.327c-0.012-0.004-0.023-0.01-0.035-0.014
			c-0.006-0.002-0.012-0.004-0.018-0.006c-0.025-0.008-0.05-0.015-0.075-0.023c-22.272-7.019-47.189-10.31-70.173-9.262
			c-26.367,1.201-50.061,8.005-68.521,19.676c-14.169,8.958-25.815,21.801-32.793,36.163c-7.362,15.149-9.003,30.781-4.857,45.481
			c-11.232,11.461-19.516,21.079-25.542,28.751V209.238c24.233-9.124,39.968-41.853,41.507-70.832
			c2.372-44.665-20.034-103.868-43.066-135.302c-0.031-0.043-0.069-0.08-0.101-0.122c-0.116-0.151-0.237-0.297-0.363-0.439
			c-0.063-0.071-0.125-0.142-0.191-0.21c-0.141-0.147-0.29-0.286-0.442-0.422c-0.053-0.047-0.102-0.097-0.156-0.142
			c-0.211-0.176-0.43-0.342-0.659-0.495c-0.033-0.022-0.068-0.04-0.101-0.061c-0.199-0.128-0.403-0.248-0.614-0.358
			c-0.066-0.034-0.134-0.064-0.201-0.097c-0.184-0.089-0.37-0.171-0.561-0.245c-0.077-0.03-0.154-0.058-0.232-0.085
			c-0.188-0.066-0.38-0.123-0.574-0.174c-0.08-0.021-0.16-0.043-0.24-0.062c-0.202-0.046-0.408-0.081-0.616-0.111
			c-0.074-0.011-0.146-0.025-0.22-0.034C256.572,0.019,256.289,0,256.001,0c-0.288,0-0.571,0.019-0.85,0.05
			c-0.074,0.008-0.147,0.023-0.22,0.034c-0.208,0.029-0.414,0.065-0.616,0.111c-0.081,0.018-0.16,0.041-0.24,0.062
			c-0.195,0.051-0.386,0.109-0.574,0.174c-0.078,0.027-0.155,0.055-0.232,0.085c-0.191,0.074-0.378,0.156-0.561,0.245
			c-0.067,0.032-0.135,0.062-0.201,0.097c-0.211,0.11-0.416,0.23-0.615,0.358c-0.033,0.021-0.067,0.039-0.099,0.06
			c-0.229,0.153-0.449,0.319-0.66,0.495c-0.053,0.045-0.103,0.094-0.155,0.141c-0.153,0.136-0.302,0.275-0.444,0.423
			c-0.065,0.068-0.128,0.139-0.191,0.21c-0.126,0.142-0.248,0.288-0.363,0.439c-0.032,0.042-0.069,0.079-0.101,0.122
			c-23.032,31.434-45.438,90.637-43.066,135.302c1.543,29.051,17.352,61.873,41.688,70.901v103.757
			c-6.041-7.711-14.375-17.404-25.723-28.983c4.145-14.7,2.504-30.332-4.857-45.481c-6.979-14.362-18.625-27.205-32.793-36.163
			c-18.46-11.671-42.154-18.475-68.521-19.676c-23.018-1.048-47.971,2.251-70.267,9.291c-0.038,0.012-0.073,0.031-0.111,0.044
			c-0.246,0.082-0.486,0.177-0.722,0.284c-0.095,0.043-0.188,0.087-0.28,0.133c-0.212,0.107-0.419,0.223-0.62,0.349
			c-0.059,0.037-0.122,0.069-0.18,0.107c-0.241,0.16-0.47,0.338-0.692,0.525c-0.075,0.063-0.146,0.129-0.218,0.195
			c-0.168,0.153-0.329,0.314-0.483,0.482c-0.054,0.058-0.109,0.114-0.161,0.175c-0.199,0.231-0.386,0.473-0.556,0.728
			c-0.024,0.036-0.044,0.074-0.068,0.11c-0.145,0.225-0.278,0.459-0.399,0.701c-0.036,0.071-0.07,0.142-0.104,0.214
			c-0.112,0.242-0.212,0.49-0.299,0.746c-0.016,0.047-0.035,0.091-0.05,0.138c-0.084,0.263-0.157,0.533-0.212,0.81
			c-0.007,0.037-0.009,0.073-0.016,0.109c-0.004,0.023-0.013,0.045-0.017,0.068c-0.009,0.052-0.009,0.105-0.017,0.157
			c-0.039,0.251-0.066,0.501-0.08,0.751c-0.004,0.08-0.009,0.159-0.011,0.238c-0.015,0.639,0.05,1.265,0.189,1.87
			c0.015,0.063,0.032,0.125,0.048,0.188c0.065,0.252,0.142,0.5,0.232,0.743c0.022,0.058,0.04,0.117,0.063,0.175
			c0.114,0.286,0.243,0.565,0.39,0.834c0.026,0.047,0.056,0.092,0.083,0.138c0.128,0.222,0.267,0.437,0.416,0.645
			c0.049,0.068,0.098,0.136,0.149,0.203c0.382,0.497,0.824,0.946,1.321,1.337c0.023,0.018,0.042,0.04,0.065,0.057
			c12.766,9.813,25.095,21.258,37.018,32.327c16.886,15.676,34.347,31.886,53.948,44.434c16.093,10.303,34.498,15.626,52.573,15.626
			c8.175,0,16.279-1.109,24.074-3.32c24.938,25.397,34.454,41.003,36.888,45.407v15.427H144.046
			c-7.975,0-14.463,6.488-14.463,14.463v26.251c0,7.975,6.488,14.463,14.463,14.463h6.921l22.836,84.813
			c2.664,9.893,11.679,16.802,21.925,16.802h120.547c10.245,0,19.261-6.909,21.925-16.802l22.836-84.812h6.921
			c7.975,0,14.463-6.488,14.463-14.463v-26.251c0-7.975-6.488-14.463-14.463-14.463H263.682v-15.745
			c2.719-4.838,12.36-20.292,36.707-45.088c7.796,2.21,15.897,3.319,24.074,3.319c18.073,0,36.481-5.324,52.573-15.626
			c19.601-12.549,37.062-28.759,53.948-44.434c11.923-11.069,24.252-22.514,37.018-32.327c0.023-0.018,0.042-0.039,0.065-0.057
			c0.497-0.392,0.939-0.841,1.321-1.337c0.051-0.067,0.1-0.134,0.149-0.203c0.149-0.208,0.288-0.423,0.416-0.645
			c0.027-0.047,0.057-0.091,0.083-0.138c0.147-0.269,0.276-0.548,0.39-0.834c0.023-0.058,0.042-0.117,0.063-0.175
			c0.09-0.243,0.167-0.491,0.232-0.743c0.016-0.063,0.034-0.125,0.048-0.188c0.139-0.605,0.204-1.232,0.189-1.87
			C470.957,199.038,470.952,198.958,470.948,198.879z M248.411,192.31c-13.884-9.025-25.2-31.394-26.439-54.709
			c-1.714-32.283,10.689-72.923,26.439-103.116V192.31z M143.151,269.284c-18.455-11.815-35.409-27.554-51.805-42.775
			c-4.301-3.993-8.655-8.034-13.073-12.042c45.878,13.643,86.159,36.16,120.194,67.206
			C180.008,284.312,159.81,279.95,143.151,269.284z M209.664,271.338c-36.157-33.263-79.03-57.282-127.902-71.676
			c31.06-4.316,67.465-1.962,95.253,15.608C195.82,227.158,211.261,249.04,209.664,271.338z M263.591,34.485
			c15.75,30.193,28.153,70.833,26.439,103.116c-1.236,23.264-12.506,45.588-26.349,54.651V83.011
			c0.001-0.378-0.036-0.748-0.09-1.111V34.485z M367.238,370.39v24.815H239.029c-4.192,0-7.59,3.398-7.59,7.59
			c0,4.192,3.398,7.59,7.59,7.59h106.285l-21.773,80.865c-0.883,3.279-3.871,5.569-7.266,5.569H195.727
			c-3.395,0-6.384-2.29-7.266-5.568l-21.773-80.866h17.964c4.192,0,7.59-3.398,7.59-7.59c0-4.192-3.398-7.59-7.59-7.59h-39.888
			V370.39H367.238z M420.656,226.51c-16.396,15.221-33.349,30.96-51.805,42.775c-16.659,10.665-36.857,15.027-55.316,12.389
			c17.432-15.894,36.606-29.657,57.169-40.999c3.671-2.025,5.005-6.642,2.981-10.312c-2.025-3.671-6.643-5.006-10.312-2.981
			c-21.99,12.128-42.465,26.89-61.034,43.962c-1.6-22.3,13.842-44.184,32.649-56.075c27.795-17.573,64.205-19.926,95.268-15.606
			c-5.229,1.539-10.39,3.176-15.452,4.925c-3.962,1.369-6.064,5.691-4.695,9.653c1.086,3.141,4.027,5.114,7.174,5.114
			c0.822,0,1.659-0.134,2.479-0.418c4.579-1.582,9.245-3.066,13.969-4.469C429.311,218.475,424.957,222.516,420.656,226.51z"/>
	</g>
</g>
<g>
</g>
<g>
</g>
<g>
</g>
<g>
</g>
<g>
</g>
<g>
</g>
<g>
</g>
<g>
</g>
<g>
</g>
<g>
</g>
<g>
</g>
<g>
</g>
<g>
</g>
<g>
</g>
<g>
</g>
</svg>
