<svg id="walk" viewBox="0 0 60 60" xmlns="http://www.w3.org/2000/svg" xml:space="preserve">
    <g id="036---Nature-Walk">
        <path id="Shape" d="m3 58h-2c-.55228475 0-1 .4477153-1 1s.44771525 1 1 1h2c.55228475 0 1-.4477153 1-1s-.44771525-1-1-1z"/>
        <path id="Shape" d="m55.92 5.09c-.4779792-2.8976609-2.9831815-5.02347555-5.92-5.02347555s-5.4420208 2.12581465-5.92 5.02347555c-2.5268322.48585751-4.2723437 2.81014682-4.0344897 5.3722483.237854 2.5621015 2.3814012 4.525348 4.9544897 4.5377517h6c.5522847 0 1-.4477153 1-1s-.4477153-1-1-1h-6c-1.4633649-.0269319-2.693702-1.1059019-2.9114199-2.5532309-.2177178-1.44732887.6407401-2.84051082 2.0314199-3.2967691.1685129.8883225.5379284 1.72634827 1.08 2.45.1888544.25180584.4852427.4.8.4.3787721 0 .7250352-.21400238.8944272-.5527864.169392-.33878403.132836-.74419595-.0944272-1.0472136-.9845021-1.30584948-1.0749257-3.07948369-.2283327-4.47868618.8465931-1.39920249 2.4596703-2.1421268 4.0732564-1.8759927 1.613586.26613409 2.9026504 1.48771823 3.2550763 3.08467888-1.0252755.22871296-1.952473.77453485-2.65 1.56-.3025619.41874667-.2363517.99903238.152763 1.3388592.3891146.33982682.9730315.32731872 1.347237-.0288592.9178844-1.02619599 2.4164537-1.29588022 3.6345142-.65407131 1.2180605.64180892 1.8428991 2.03033913 1.5154353 3.36763401-.3274638 1.3372948-1.5231601 2.2800301-2.8999495 2.2864373-.5522847 0-1 .4477153-1 1s.4477153 1 1 1c2.5730885-.0124037 4.7166357-1.9756502 4.9544897-4.5377517.237854-2.56210148-1.5076575-4.88639079-4.0344897-5.3722483z"/>
        <path id="Shape" d="m12 18c0-.5522847-.4477153-1-1-1h-6c-1.46336486-.0269319-2.69370204-1.1059019-2.9114199-2.5532309-.21771785-1.4473289.64074006-2.8405108 2.0314199-3.2967691.16851293.8883225.53792837 1.7263483 1.08 2.45.18885438.2518058.4852427.4.8.4.37877206 0 .72503518-.2140024.89442719-.5527864.16939202-.338784.13283605-.744196-.09442719-1.0472136-.98450214-1.3058495-1.07492567-3.07948369-.22833265-4.47868618s2.45967026-2.1421268 4.07325635-1.8759927c1.613586.26613409 2.9026504 1.48771823 3.2550763 3.08467888-1.0252755.22871296-1.952473.77453485-2.65 1.56-.3025619.4187467-.2363517.9990324.152763 1.3388592.3891146.3398268.9730315.3273187 1.347237-.0288592.9178844-1.026196 2.4164537-1.2958802 3.6345142-.6540713s1.8428991 2.0303391 1.5154353 3.367634c-.3274638 1.3372948-1.5231601 2.2800301-2.8999495 2.2864373-.5522847 0-1 .4477153-1 1s.4477153 1 1 1c2.5730885-.0124037 4.7166357-1.9756502 4.9544897-4.5377517s-1.5076575-4.88639079-4.0344897-5.3722483c-.4779792-2.8976609-2.9831815-5.02347555-5.92-5.02347555-2.93681848 0-5.44202082 2.12581465-5.92 5.02347555-2.5268322.48585751-4.27234372 2.8101468-4.0344897 5.3722483s2.38140116 4.525348 4.9544897 4.5377517h6c.5522847 0 1-.4477153 1-1z"/>
        <path id="Shape" d="m49 45v-5c0-.5522847-.4477153-1-1-1s-1 .4477153-1 1v5h-4c-.5522847 0-1 .4477153-1 1s.4477153 1 1 1h4c1.1045695 0 2-.8954305 2-2z"/>
        <path id="Shape" d="m55 30h-2v-3c0-3.3137085-2.6862915-6-6-6h-6c-3.3137085 0-6 2.6862915-6 6v18c0 3.3137085 2.6862915 6 6 6h2v7h-13.26c.2010227-.6207988.2010227-1.2892012 0-1.91l-2.34-6.35c-.57-1.54-1.17-1.92-4.4-5.05v-3c.75.48.81.43 6.28 2.2 1.5320486.2608696 3.0096786-.6914498 3.4049306-2.1944473.3952519-1.5029976-.4227471-3.0590118-1.8849306-3.5855527-5.31-1.7-4.05-1-6.95-3.74-.9341014-.88484-2.1733545-1.3755269-3.46-1.37h-4.14c-1.018472-.0005218-2.012816.3099926-2.85.89-2.92 2-3.85 2.5-4.59 3.75-2.21 3.69-2.47 4-2.51 4.07-.56021488 1.4456574.07341675 3.0800408 1.46169754 3.7702888s3.07382196.2089486 3.88830246-1.1102888c2.11-3.34 2-3.25 2.35-3.57v7.86c0 1.34-.36 1.61-3.35 6.85-.4254883.761455-.4984954 1.6703937-.2 2.49h-3.45c-.55228475 0-1 .4477153-1 1s.44771525 1 1 1h52c.5522847 0 1-.4477153 1-1s-.4477153-1-1-1h-5v-4h1c2.7614237 0 5-2.2385763 5-5v-14c0-2.7614237-2.2385763-5-5-5zm-18 15v-18c0-2.209139 1.790861-4 4-4h6c2.209139 0 4 1.790861 4 4v18c0 2.209139-1.790861 4-4 4h-6c-2.209139 0-4-1.790861-4-4zm-23.75-6.17c-1.06.73-1.27 1.23-3.32 4.51v.1c-.26968396.4152426-.80263453.5706135-1.25321465.3653492-.45058013-.2052642-.68310977-.7093539-.54678535-1.1853492 2.36-3.82 2.59-4.41 3.33-4.92l3.13-2.17c.4902737-.333814 1.066995-.5179479 1.66-.53h4.14c2.47 0 3.1 2.85 5.84 3.77l4 1.28c.491897.1517834.7881956.6522057.6847531 1.1564878-.1034425.5042822-.5728246.8476418-1.0847531.7935122-5.47-1.77-5.57-1.7-6.23-2.34s-.6-.54-.6-.66c0-.5522847-.4477153-1-1-1s-1 .4477153-1 1v5h-5v-4.56c.3940528-.1879147.8061659-.3353373 1.23-.44.5522847-.1270255.8970255-.6777153.77-1.23s-.6777153-.8970255-1.23-.77c-1.2857209.363903-2.4835447.9866352-3.52 1.83zm-.86 17.67c4-7 3.61-5.5 3.61-10.5h5.48c3.16 3.07 3.65 3.37 4.05 4.44l2.35 6.28c.1353098.5357162-.1892838 1.0796902-.725 1.215s-1.0796902-.1892838-1.215-.725c-2.71-7.21-1.94-5.84-4.41-8.78-.5425183-.6444572-1.4306943-.8798802-2.2212002-.5887591-.7905059.2911212-1.3138467 1.0463663-1.3087998 1.8887591-.001178.659375-.1734606 1.3071573-.5 1.88l-3.37 5.87c-.2761424.4804877-.8895123.6461423-1.37.37-.4804877-.2761424-.6461424-.8895123-.37-1.37zm6.85-3.9c.4930026-.8765808.7545611-1.8643082.76-2.87 2.25 2.65 1.47 1.22 4 8.11l.06.16h-8zm32.76 5.4h-7v-7h1.43c.793414 1.817957 2.5864555 2.9950084 4.57 3h1zm6-9c0 1.6568542-1.3431458 3-3 3h-4c-.9478049-.0047068-1.8376405-.4570399-2.4-1.22 2.598848-.719064 4.3987717-3.0835093 4.4-5.78v-13h2c1.6568542 0 3 1.3431458 3 3z"/>
        <path id="Shape" d="m19 23c-2.209139 0-4 1.790861-4 4s1.790861 4 4 4 4-1.790861 4-4-1.790861-4-4-4zm0 6c-1.1045695 0-2-.8954305-2-2s.8954305-2 2-2 2 .8954305 2 2-.8954305 2-2 2z"/>
        <path id="Shape" d="m27 10c2.7614237 0 5-2.23857625 5-5s-2.2385763-5-5-5-5 2.23857625-5 5 2.2385763 5 5 5zm0-8c1.6568542 0 3 1.34314575 3 3s-1.3431458 3-3 3-3-1.34314575-3-3 1.3431458-3 3-3z"/>
        <path id="Shape" d="m48 37c.5522847 0 1-.4477153 1-1v-2c0-.5522847-.4477153-1-1-1s-1 .4477153-1 1v2c0 .5522847.4477153 1 1 1z"/>
    </g>
</svg>
