<svg id="yoga"  version="1.1" xmlns="http://www.w3.org/2000/svg" xmlns:xlink="http://www.w3.org/1999/xlink" x="0px" y="0px" viewBox="0 0 1000 1000" enable-background="new 0 0 1000 1000" xml:space="preserve">
  <g>
    <path d="M502.3,320.9c0.2,0,0.3,0,0.5,0c0.2,0,0.3,0,0.5,0c85.9,0,155.5-69.6,155.5-155.5C658.8,79.6,589.2,10,503.3,10c-0.2,0-0.3,0-0.5,0c-0.2,0-0.3,0-0.5,0c-85.9,0-155.5,69.6-155.5,155.5C346.8,251.3,416.4,320.9,502.3,320.9z"/>
    <path d="M892.8,638.9L717.4,511.5L662,376.1c-10.5-25.8-35.7-41.1-62-40.5l0-0.1H500H400l0,0.1c-26.3-0.6-51.4,14.8-62,40.5l-55.4,135.4L107.2,638.9c-29.2,21.2-35.7,62.1-14.4,91.3c12.8,17.6,32.7,26.9,52.9,26.9c13.3,0,26.8-4.1,38.4-12.5l189.6-137.8l-4.8,49.9L189.6,838.4c-24.9,25.9-31.9,64.1-17.8,97.1c14.1,33,46.5,54.4,82.4,54.4h85.7c-22.1-20-36.2-49.8-36.2-83.1c0-60,45.6-108.9,101.7-108.9c0,0,65.6,0,97.6,0c32,0,57.3,26.1,57.3,26.1H405.4c-42.6,0-77.3,37.1-77.3,82.7s34.7,82.7,77.3,82.7h150c1.7-0.1,3.4-0.1,5.1-0.3h181.3c35.9,0,68.3-21.4,82.4-54.5c14.1-33,7.1-71.2-17.8-97.1L631.1,655.9h0l-4.7-49l189.6,137.8c11.6,8.4,25.1,12.5,38.4,12.5c20.2,0,40.1-9.3,52.9-26.9C928.4,701.1,922,660.2,892.8,638.9z"/>
  </g>
</svg>
